# xmcd
#
# Track frame offsets:
#	150
#	27073
#	63331
#	85847
#	126523
#	158637
#
# Disc length: 2476 seconds
#
# Revision: 0
# Processed by: cddbd v1.5.2PL0 Copyright (c) Steve Scherf et al.
# Submitted via: audiograbber 1.83.01
#
DISCID=4309aa06
DTITLE=Grateful Dead - 93-04-04 Nassau Veterans Memorial Coliseum, Uniondale NY
DYEAR=1900
DGENRE=
TTITLE0=Space
TTITLE1=The Other One
TTITLE2=Attics Of My Life
TTITLE3=Throwing Stones
TTITLE4=Not Fade Away
TTITLE5=Liberty
EXTD=
EXTT0=
EXTT1=
EXTT2=
EXTT3=
EXTT4=
EXTT5=
PLAYORDER=
